# xmcd
#
# Track frame offsets:
#	150
#	14940
#	31202
#	45797
#	57635
#	75647
#	91687
#	105852
#	122540
#	133585
#	146025
#	160442
#	171175
#	190020
#
# Disc length: 2789
#
# Revision: 1
# Processed by: cddbd v1.5.1PL0 Copyright (c) Steve Scherf et al.
# Submitted via: VisiTrax 2.9.5.180 - For more info visit www.synapsa.com
# Normalized: r0:DSETVAR1
#
DISCID=b00ae30e
DTITLE=Various Artist - Mr. Music Country 12-93
DYEAR=1993
DGENRE=
TTITLE0=John Anderson - Solid ground
TTITLE1=Clint Black - Tuckered out
TTITLE2=Arnold Sanford - Me and jeans and my old broken heart
TTITLE3=Norman Wade - I've got to sing my songs
TTITLE4=Martina McBride - Life #9
TTITLE5=Darrell McCall - Christmas in cell #9
TTITLE6=Alabama - Hometown honeymoon
TTITLE7=B B Watson - Good intentions
TTITLE8=Glenda Sue Foster - Eyes as big as Texas
TTITLE9=Larry Stewart - I came straight to you
TTITLE10=Doug Supernaw - Honky tonkin' fool
TTITLE11=Aaron Tippin - When country took the throne
TTITLE12=Trond Granlund - Joe Sun - Remember me
TTITLE13=Reba McEntire - The night the lights went out in Georgia
EXTD=
EXTT0=
EXTT1=
EXTT2=
EXTT3=
EXTT4=
EXTT5=
EXTT6=
EXTT7=
EXTT8=
EXTT9=
EXTT10=
EXTT11=
EXTT12=
EXTT13=
PLAYORDER=
